<svg width="142" height="146" viewBox="0 0 142 146" fill="none" xmlns="http://www.w3.org/2000/svg">
<path d="M121.453 0.0340745C123.711 -0.167969 125.958 0.534215 127.697 1.98818C130.679 4.48384 132.01 8.00434 132.67 10.452C133.403 13.1735 133.717 16.1648 133.757 19.0546C133.814 23.2453 133.289 27.997 132.022 32.3642C132.979 34.0706 134.168 36.2878 135.352 38.8163C137.939 44.338 141.145 52.5457 141.145 60.3231C141.145 75.7619 136.618 87.6019 127.986 95.8915C122.442 101.215 115.658 104.58 108.433 106.714C109.229 109.514 109.671 112.422 109.671 115.375V137.264C109.671 141.981 105.844 145.808 101.126 145.808C96.4078 145.808 92.581 141.982 92.5809 137.264V115.375C92.5818 111.989 91.4098 108.707 89.2616 106.09C87.2939 103.695 86.7735 100.417 87.9091 97.5331C89.0457 94.6483 91.6578 92.6006 94.7313 92.1913C104.271 90.9208 111.412 88.1115 116.146 83.5653C120.657 79.2341 124.054 72.2942 124.055 60.3231C124.055 56.5102 122.275 51.1787 119.881 46.0663C118.757 43.6678 117.619 41.582 116.77 40.0995C116.35 39.3657 116.011 38.7839 115.776 38.4003C115.659 38.2087 115.565 38.0596 115.51 37.9716C115.483 37.9286 115.462 37.8959 115.452 37.8798L115.44 37.8681C113.874 35.4281 113.651 32.3558 114.85 29.7157C115.976 27.2377 116.731 23.1998 116.678 19.286C116.674 19.0401 116.641 18.8018 116.632 18.5692C116.578 18.587 116.524 18.6087 116.47 18.6268C112.202 20.0434 106.506 22.6406 100.894 27.2997C98.7106 29.1102 95.7661 29.7132 93.0428 28.9179C81.5515 25.5626 69.7623 25.871 58.2733 28.9647C55.5952 29.686 52.7304 29.0698 50.5956 27.2997C44.9835 22.6402 39.2859 20.0433 35.0204 18.6268C34.9622 18.6075 34.9041 18.5881 34.8466 18.5692C34.8373 18.8006 34.8147 19.0413 34.8114 19.286C34.7593 23.194 35.5094 27.2329 36.6386 29.7157C37.8415 32.3603 37.6216 35.437 36.0487 37.8798L35.9911 37.9716C35.9358 38.0596 35.8425 38.2087 35.7255 38.4003C35.4911 38.7839 35.1403 39.3646 34.7196 40.0995C33.8712 41.5818 32.7427 43.6697 31.62 46.0663C29.2252 51.1791 27.4462 56.5099 27.4462 60.3231C27.4469 72.2898 30.8345 79.2332 35.3436 83.5653C40.0776 88.1125 47.2268 90.9209 56.7704 92.1913C59.8435 92.6014 62.4557 94.6482 63.5917 97.5331C64.7272 100.418 64.2087 103.695 62.2391 106.09C60.0876 108.706 58.9102 111.988 58.9091 115.375V120.173C58.9159 120.366 58.9153 120.558 58.9091 120.75V137.264C58.909 141.982 55.0822 145.808 50.3641 145.808C45.6468 145.808 41.8193 141.981 41.8192 137.264V132.09C40.7033 132.253 39.5789 132.372 38.4491 132.439C32.9157 132.769 27.3702 131.924 22.1805 129.976C16.9838 128.026 12.2936 124.973 8.50183 121.026L8.51257 121.015C4.70527 117.066 1.8832 112.326 0.349488 107.116C-0.981814 102.591 1.60712 97.8343 6.13074 96.5009C10.6556 95.1695 15.4125 97.7594 16.746 102.283C17.2954 104.15 18.1962 105.953 19.4403 107.591L20.8046 109.175L20.8163 109.185C22.7834 111.233 25.2975 112.902 28.1815 113.984C31.1307 115.091 34.287 115.571 37.4315 115.384C38.9205 115.295 40.3926 115.055 41.827 114.676C41.8881 111.965 42.301 109.29 43.0331 106.714C35.8182 104.58 29.0508 101.208 23.5145 95.8915C14.8835 87.601 10.3571 75.7587 10.3563 60.3231C10.3564 52.545 13.5627 44.338 16.1493 38.8163C17.333 36.2894 18.5109 34.0702 19.4677 32.3642C18.1995 27.9977 17.6771 23.2461 17.7333 19.0546C17.7722 16.1624 18.0837 13.1654 18.8202 10.4403C19.483 7.98801 20.8254 4.48167 23.8153 1.98818L25.203 1.03993C26.6725 0.241079 28.3573 -0.117613 30.0477 0.0340745H30.0712L30.1053 0.0457932C30.1274 0.0479049 30.158 0.0429549 30.1864 0.0457932C30.2435 0.0515853 30.3131 0.0590748 30.3944 0.0682542C30.563 0.0873076 30.7864 0.112521 31.0536 0.149309C31.5923 0.223567 32.3291 0.346009 33.2274 0.519426C35.0218 0.865851 37.4934 1.44808 40.4081 2.41591C45.3398 4.05358 51.6109 6.82898 58.0302 11.4696C69.5147 8.94838 81.5262 8.64605 93.5399 11.412C99.9302 6.80723 106.169 4.0469 111.081 2.41591C113.997 1.44804 116.478 0.865835 118.273 0.519426C119.168 0.346791 119.898 0.22347 120.435 0.149309C120.702 0.112558 120.926 0.0873839 121.095 0.0682542C121.179 0.0587454 121.256 0.0517066 121.314 0.0457932C121.344 0.0428334 121.373 0.0479104 121.395 0.0457932L121.431 0.0340745H121.453Z" fill="white"/>
</svg>
