<svg width="143" height="145" viewBox="0 0 143 145" fill="none" xmlns="http://www.w3.org/2000/svg">
<path d="M62.491 3.23892C65.0387 1.14356 68.2195 0 71.5 0C74.7805 0 77.9614 1.14356 80.509 3.23892L135.049 48.0376C137.529 50.0737 139.53 52.6452 140.905 55.5647C142.281 58.4841 142.996 61.6779 143 64.9132V130.502C143 134.347 141.493 138.035 138.812 140.754C136.13 143.473 132.493 145 128.7 145H100.1C96.3074 145 92.6702 143.473 89.9884 140.754C87.3066 138.035 85.8 134.347 85.8 130.502V87.0081H57.2V130.502C57.2 134.347 55.6934 138.035 53.0116 140.754C50.3299 143.473 46.6926 145 42.9 145H14.3C10.5074 145 6.87014 143.473 4.18837 140.754C1.5066 138.035 4.19833e-07 134.347 4.19833e-07 130.502V64.9278C-0.000631871 61.6875 0.712941 58.488 2.08856 55.5633C3.46417 52.6385 5.46706 50.0623 7.9508 48.0231L62.491 3.23892ZM126.054 59.288L71.5 14.5183L16.9455 59.288C16.1178 59.9688 15.4507 60.8285 14.993 61.8043C14.5353 62.78 14.2985 63.8472 14.3 64.9278V130.502H42.9V87.0081C42.9 83.163 44.4066 79.4754 47.0884 76.7565C49.7701 74.0376 53.4074 72.5102 57.2 72.5102H85.8C89.5926 72.5102 93.2299 74.0376 95.9116 76.7565C98.5934 79.4754 100.1 83.163 100.1 87.0081V130.502H128.7V64.9278C128.701 63.8472 128.465 62.78 128.007 61.8043C127.549 60.8285 126.882 59.9688 126.054 59.288Z" fill="white"/>
</svg>
