<svg width="144" height="146" viewBox="0 0 144 146" fill="none" xmlns="http://www.w3.org/2000/svg">
<path d="M41.7646 0.954102H102.245C125.285 0.954102 144.005 19.8041 144.005 43.0041V103.904C144.005 115.056 139.605 125.752 131.773 133.638C123.942 141.524 113.32 145.954 102.245 145.954H41.7646C18.7246 145.954 0.00463867 127.104 0.00463867 103.904V43.0041C0.00463867 31.8517 4.40434 21.1562 12.2359 13.2703C20.0674 5.38436 30.6892 0.954102 41.7646 0.954102ZM40.3246 15.4541C33.4502 15.4541 26.8574 18.2039 21.9964 23.0986C17.1355 27.9933 14.4046 34.632 14.4046 41.5541V105.354C14.4046 119.782 25.9966 131.454 40.3246 131.454H103.685C110.559 131.454 117.152 128.704 122.013 123.81C126.874 118.915 129.605 112.276 129.605 105.354V41.5541C129.605 27.1266 118.013 15.4541 103.685 15.4541H40.3246ZM109.805 26.3291C112.192 26.3291 114.481 27.2839 116.169 28.9834C117.856 30.683 118.805 32.9881 118.805 35.3916C118.805 37.7951 117.856 40.1002 116.169 41.7998C114.481 43.4993 112.192 44.4541 109.805 44.4541C107.418 44.4541 105.128 43.4993 103.441 41.7998C101.753 40.1002 100.805 37.7951 100.805 35.3916C100.805 32.9881 101.753 30.683 103.441 28.9834C105.128 27.2839 107.418 26.3291 109.805 26.3291ZM72.0046 37.2041C81.5524 37.2041 90.7092 41.0233 97.4605 47.8215C104.212 54.6197 108.005 63.84 108.005 73.4541C108.005 83.0682 104.212 92.2885 97.4605 99.0867C90.7092 105.885 81.5524 109.704 72.0046 109.704C62.4568 109.704 53.3001 105.885 46.5488 99.0867C39.7975 92.2885 36.0046 83.0682 36.0046 73.4541C36.0046 63.84 39.7975 54.6197 46.5488 47.8215C53.3001 41.0233 62.4568 37.2041 72.0046 37.2041ZM72.0046 51.7041C66.276 51.7041 60.7819 53.9956 56.7311 58.0745C52.6803 62.1534 50.4046 67.6856 50.4046 73.4541C50.4046 79.2226 52.6803 84.7548 56.7311 88.8337C60.7819 92.9126 66.276 95.2041 72.0046 95.2041C77.7333 95.2041 83.2274 92.9126 87.2781 88.8337C91.3289 84.7548 93.6046 79.2226 93.6046 73.4541C93.6046 67.6856 91.3289 62.1534 87.2781 58.0745C83.2274 53.9956 77.7333 51.7041 72.0046 51.7041Z" fill="white"/>
</svg>
