<svg width="146" height="145" viewBox="0 0 146 145" fill="none" xmlns="http://www.w3.org/2000/svg">
<path d="M108.85 0.162109C118.442 0.163007 127.673 3.96599 134.504 10.7812C141.339 17.6017 145.209 26.8863 145.21 36.6045V108.293C145.209 118.011 141.339 127.296 134.504 134.116C127.673 140.931 118.442 144.733 108.85 144.734H37.0066C27.4139 144.734 18.1752 140.932 11.3435 134.116C4.50893 127.296 0.638648 118.01 0.637451 108.293V36.6045C0.638645 26.887 4.50899 17.6015 11.3435 10.7812C18.1752 3.96519 27.4139 0.162109 37.0066 0.162109H108.85ZM37.0066 15.7109C31.3575 15.7109 25.967 17.9499 22.0203 21.8857C18.0798 25.8172 15.8935 31.1179 15.8923 36.6045V108.293C15.8935 113.78 18.0798 119.08 22.0203 123.012C25.967 126.947 31.3576 129.187 37.0066 129.187H108.85C114.5 129.186 119.891 126.949 123.838 123.012C127.778 119.08 129.954 113.779 129.955 108.293V36.6045C129.954 31.1181 127.778 25.8171 123.838 21.8857C119.891 17.9485 114.5 15.7118 108.85 15.7109H37.0066ZM44.1863 57.5078C48.3976 57.5078 51.8123 60.9903 51.8142 65.2822V101.127C51.8136 105.42 48.3984 108.901 44.1863 108.901C39.9743 108.901 36.5599 105.42 36.5593 101.127V65.2822C36.5612 60.9904 39.9751 57.508 44.1863 57.5078ZM87.2888 57.5078C93.0706 57.5078 98.6557 59.7982 102.793 63.9258C106.935 68.0587 109.288 73.7079 109.288 79.626V101.127C109.287 105.42 105.872 108.901 101.66 108.901C97.4489 108.9 94.0336 105.419 94.033 101.127V79.626C94.0329 77.9401 93.3626 76.2849 92.116 75.041C90.8637 73.7922 89.1282 73.0566 87.2888 73.0566C85.4515 73.0579 83.7236 73.7937 82.4724 75.041C81.2258 76.2849 80.5555 77.9401 80.5554 79.626V101.127C80.5548 105.419 77.1388 108.899 72.9285 108.901C68.7164 108.901 65.3011 105.42 65.3005 101.127V65.2822C65.3024 60.9903 68.7172 57.5078 72.9285 57.5078C74.9142 57.5088 76.7067 58.3049 78.0632 59.5732C80.9366 58.237 84.0771 57.5085 87.2888 57.5078ZM44.1863 36.0078C48.3988 36.0078 51.8142 39.4886 51.8142 43.7822V43.8525C51.8142 48.1461 48.3988 51.627 44.1863 51.627C39.9739 51.6268 36.5593 48.146 36.5593 43.8525V43.7822C36.5593 39.4887 39.9739 36.008 44.1863 36.0078Z" fill="white"/>
</svg>
