<svg width="145" height="145" viewBox="0 0 145 145" fill="none" xmlns="http://www.w3.org/2000/svg">
<path d="M108.402 0.162109C118.061 0.162126 127.328 3.99615 134.158 10.8262C140.988 17.6562 144.822 26.9229 144.822 36.582V108.315C144.822 117.974 140.988 127.24 134.158 134.07C127.328 140.9 118.061 144.735 108.402 144.735H36.6687C27.0097 144.735 17.7438 140.9 10.9138 134.07C4.08387 127.24 0.249857 117.974 0.249756 108.315V36.582C0.249773 26.9229 4.08379 17.6562 10.9138 10.8262C17.7437 3.99643 27.0099 0.162211 36.6687 0.162109H108.402ZM15.7029 108.315C15.703 113.876 17.9077 119.213 21.8396 123.145C25.7715 127.076 31.1082 129.281 36.6687 129.281H108.402C113.963 129.281 119.299 127.076 123.231 123.145C127.163 119.213 129.369 113.876 129.369 108.315V48.7988L85.0427 74.3945C78.031 78.4426 69.3877 78.442 62.3757 74.3945L15.7029 47.4443V108.315ZM36.6687 15.6152C31.1082 15.6153 25.7715 17.821 21.8396 21.7529C19.2049 24.3877 17.346 27.6533 16.406 31.1943L69.5896 61.8994C72.1393 63.3707 75.2794 63.3713 77.8289 61.8994L128.943 32.3828C128.127 28.3858 126.158 24.6801 123.231 21.7529C119.299 17.821 113.963 15.6153 108.402 15.6152H36.6687Z" fill="white"/>
</svg>
