<svg width="127" height="145" viewBox="0 0 127 145" fill="none" xmlns="http://www.w3.org/2000/svg">
<path d="M81.0391 34.3175C81.0391 29.074 79.0732 24.1385 75.7215 20.5773C72.3861 17.0336 67.9774 15.1483 63.5 15.1483C59.0226 15.1483 54.6139 17.0336 51.2785 20.5773C47.9267 24.1385 45.9609 29.074 45.9609 34.3175C45.9611 36.9026 46.4422 39.4515 47.3635 41.815C48.285 44.1787 49.623 46.2961 51.2785 48.0551C52.9329 49.8128 54.8691 51.1764 56.9608 52.0971C59.0511 53.017 61.2717 53.484 63.5 53.484C65.7283 53.484 67.9489 53.017 70.0392 52.0971C72.1309 51.1764 74.0671 49.8128 75.7215 48.0551C77.377 46.2961 78.715 44.1787 79.6365 41.815C80.5577 39.4515 81.0389 36.9026 81.0391 34.3175ZM127 130.005C127 133.822 125.579 137.579 122.901 140.424C120.207 143.287 116.436 145 112.386 145H14.6141C10.5641 145 6.79313 143.287 4.09866 140.424C1.4207 137.579 0 133.822 0 130.005V120.761C0 106.77 9.27128 95.4432 20.8899 88.0182C32.6484 80.5038 48.0672 76.0559 63.5 76.0559C78.9321 76.0559 94.3563 80.5043 106.118 88.0182C117.737 95.4406 127.015 106.766 127 120.761V130.005ZM15.2609 129.852H111.739V120.751C111.748 113.929 107.151 106.693 97.8596 100.757C88.7088 94.9112 76.1841 91.2042 63.5 91.2042C50.8164 91.2042 38.2983 94.9116 29.1511 100.757C19.865 106.692 15.2609 113.932 15.2609 120.761V129.852ZM96.2999 34.3175C96.2998 38.7547 95.4779 43.1592 93.87 47.2836C92.2618 51.4089 89.8918 55.1904 86.873 58.3979C83.8533 61.606 80.2395 64.1812 76.2245 65.9482C72.2077 67.7159 67.882 68.6323 63.5 68.6323C59.118 68.6323 54.7923 67.7159 50.7755 65.9482C46.7605 64.1812 43.1466 61.606 40.127 58.3979C37.1082 55.1904 34.7382 51.4089 33.13 47.2836C31.5221 43.1592 30.7002 38.7547 30.7 34.3175C30.7 25.3761 34.0385 16.7035 40.127 10.2345C46.2318 3.74861 54.6273 0 63.5 0C72.3727 4.3935e-06 80.7682 3.74861 86.873 10.2345C92.9615 16.7035 96.2999 25.3761 96.2999 34.3175Z" fill="white"/>
</svg>
