<svg width="123" height="145" viewBox="0 0 123 145" fill="none" xmlns="http://www.w3.org/2000/svg">
<path d="M0 25.9926C0 5.41083 22.3283 -6.85364 39.2438 4.09413L39.2411 4.09682L111.172 50.6017L111.175 50.6044C126.942 60.8051 126.942 84.1978 111.175 94.3986L111.172 94.4013L39.2411 140.912C22.3315 151.845 0 139.598 0 119.01V25.9926ZM15.1043 119.01C15.1043 127.222 24.1357 132.412 31.1648 127.867L103.093 81.3564C109.494 77.216 109.494 67.787 103.093 63.6466V63.6439L31.1648 17.1363H31.1621C24.1389 12.5907 15.1043 17.7757 15.1043 25.9926V119.01Z" fill="white"/>
</svg>
