<svg width="121" height="145" viewBox="0 0 121 145" fill="none" xmlns="http://www.w3.org/2000/svg">
<path d="M74.3013 8.63416e-08C83.4373 8.63416e-08 90.978 -0.00238565 96.9396 0.785986C103.167 1.60655 108.682 3.39105 113.103 7.72407C117.253 11.7914 119.119 16.8101 120.034 22.4646L120.206 23.6031V23.6083C121.004 29.4594 121 36.8575 121 45.8091V99.1935C121 108.145 121.004 115.543 120.206 121.394V121.397C119.359 127.518 117.53 132.94 113.103 137.279C108.682 141.611 103.168 143.395 96.9422 144.222H96.9396C90.979 145.003 83.4382 145 74.3013 145H46.6987C37.5622 145 30.0235 145.003 24.063 144.222H24.0604C17.8345 143.395 12.3179 141.611 7.89685 137.279V137.276C3.47994 132.94 1.63591 127.522 0.802187 121.397L0.661544 120.279C-0.00186408 114.612 3.85798e-08 107.585 2.75872e-07 99.1935V45.8091C2.7583e-07 36.8576 -0.00357173 29.4581 0.802187 23.6057L0.97148 22.4672C1.88037 16.8111 3.7467 11.7918 7.89685 7.72407L8.74071 6.9407C13.01 3.17814 18.2195 1.55223 24.0604 0.788597C30.0221 8.76579e-05 37.5623 1.49577e-08 46.6987 8.63416e-08H74.3013ZM32.9522 105.505C26.2631 105.505 24.2527 105.559 22.7608 105.954L22.7581 105.957C20.6578 106.509 18.7288 107.552 17.1376 108.994C15.6299 110.36 14.4722 112.046 13.7414 113.916C13.8412 116.061 13.9917 117.935 14.218 119.603L14.4784 121.227C15.139 124.751 16.1561 126.538 17.445 127.808C18.9283 129.261 21.1121 130.361 25.8627 130.988L27.79 131.202C32.4843 131.639 38.5934 131.651 47.0686 131.651H73.934C83.618 131.651 90.2065 131.635 95.1451 130.988L96.8068 130.73C100.421 130.078 102.258 129.074 103.558 127.805C105.034 126.357 106.148 124.233 106.785 119.598L106.967 118.075C107.312 114.76 107.408 110.697 107.438 105.505H32.9522ZM47.0764 13.3513C37.3906 13.3513 30.793 13.3654 25.8679 14.012C21.1199 14.639 18.9359 15.737 17.4528 17.1898L17.4554 17.1925C15.9795 18.6445 14.8544 20.7722 14.218 25.397C13.5598 30.2211 13.5434 36.6753 13.5434 46.1695V95.2871C15.3587 94.336 17.2785 93.585 19.2707 93.0571L19.2759 93.0544C22.7561 92.1431 26.7592 92.1562 32.1708 92.1562H107.464V46.1695C107.464 37.8606 107.453 31.8802 107.009 27.2875L106.79 25.4022C106.153 20.7665 105.04 18.6434 103.563 17.1951C102.077 15.7446 99.8908 14.6412 95.1503 14.0146V14.012C90.2117 13.3656 83.6227 13.3513 73.9392 13.3513H47.0764ZM67.217 55.9538C68.9997 55.9542 70.7188 56.6496 71.9911 57.8966C73.2637 59.1448 73.9884 60.8462 73.9887 62.6282C73.9884 64.4108 73.2645 66.1141 71.9911 67.3624C70.7188 68.6093 68.9997 69.3048 67.217 69.3051H33.6372C31.8546 69.3051 30.1356 68.6088 28.8631 67.3624C27.5898 66.1141 26.8658 64.4106 26.8654 62.6282C26.8658 60.8458 27.5899 59.1448 28.8631 57.8966C30.1357 56.6493 31.854 55.9538 33.6372 55.9538H67.217ZM87.3654 32.9148C89.1481 32.9151 90.8672 33.6106 92.1395 34.8576C93.4125 36.106 94.1372 37.8093 94.1372 39.5917C94.1365 41.3739 93.4126 43.0753 92.1395 44.3233C90.8672 45.5703 89.1481 46.2658 87.3654 46.2661H33.6372C31.8546 46.2661 30.1356 45.5698 28.8631 44.3233C27.5902 43.0753 26.8661 41.3737 26.8654 39.5917C26.8654 37.8088 27.5895 36.1061 28.8631 34.8576C30.1357 33.6103 31.854 32.9148 33.6372 32.9148H87.3654Z" fill="white"/>
</svg>
