<svg width="145" height="145" viewBox="0 0 145 145" fill="none" xmlns="http://www.w3.org/2000/svg">
<path d="M106.842 3.55666e-08C112.682 -0.000325271 118.301 2.2309 122.55 6.23716C126.799 10.2434 129.356 15.7219 129.699 21.5516L129.737 22.8947V99.2105H135.461C140.398 99.2105 144.466 102.965 144.954 107.773L145 108.75V122.105C145 127.945 142.769 133.564 138.763 137.813C134.757 142.062 129.278 144.619 123.448 144.962L122.105 145H45.7895C39.9497 145 34.3305 142.769 30.0817 138.763C25.8328 134.757 23.2755 129.278 22.9329 123.448L22.8947 122.105V45.7895H9.53947C7.17782 45.7906 4.89972 44.9156 3.146 43.3338C1.39228 41.7521 0.287623 39.5761 0.0457898 37.2268L3.55666e-08 36.25V22.8947C-0.000325271 17.055 2.2309 11.4358 6.23716 7.18696C10.2434 2.93811 15.7219 0.380758 21.5516 0.0381588L22.8947 3.55666e-08H106.842ZM106.842 15.2632H38.1579V122.105C38.1579 124.129 38.9619 126.07 40.3931 127.502C41.8243 128.933 43.7655 129.737 45.7895 129.737C47.8135 129.737 49.7546 128.933 51.1858 127.502C52.617 126.07 53.4211 124.129 53.4211 122.105V108.75C53.4211 103.484 57.6947 99.2105 62.9605 99.2105H114.474V22.8947C114.474 20.8707 113.67 18.9296 112.238 17.4984C110.807 16.0672 108.866 15.2632 106.842 15.2632ZM129.737 114.474H68.6842V122.105C68.6842 124.776 68.2263 127.348 67.3868 129.737H122.105C124.129 129.737 126.07 128.933 127.502 127.502C128.933 126.07 129.737 124.129 129.737 122.105V114.474ZM76.3158 68.6842C78.3398 68.6842 80.2809 69.4883 81.7121 70.9194C83.1433 72.3506 83.9474 74.2918 83.9474 76.3158C83.9474 78.3398 83.1433 80.2809 81.7121 81.7121C80.2809 83.1433 78.3398 83.9474 76.3158 83.9474H61.0526C59.0286 83.9474 57.0875 83.1433 55.6563 81.7121C54.2251 80.2809 53.4211 78.3398 53.4211 76.3158C53.4211 74.2918 54.2251 72.3506 55.6563 70.9194C57.0875 69.4883 59.0286 68.6842 61.0526 68.6842H76.3158ZM91.5789 38.1579C93.603 38.1579 95.5441 38.9619 96.9753 40.3931C98.4065 41.8243 99.2105 43.7655 99.2105 45.7895C99.2105 47.8135 98.4065 49.7546 96.9753 51.1858C95.5441 52.617 93.603 53.4211 91.5789 53.4211H61.0526C59.0286 53.4211 57.0875 52.617 55.6563 51.1858C54.2251 49.7546 53.4211 47.8135 53.4211 45.7895C53.4211 43.7655 54.2251 41.8243 55.6563 40.3931C57.0875 38.9619 59.0286 38.1579 61.0526 38.1579H91.5789ZM22.8947 15.2632C21.0255 15.2634 19.2214 15.9497 17.8245 17.1918C16.4277 18.4339 15.5353 20.1455 15.3166 22.0018L15.2632 22.8947V30.5263H22.8947V15.2632Z" fill="white"/>
</svg>
