<svg width="145" height="145" viewBox="0 0 145 145" fill="none" xmlns="http://www.w3.org/2000/svg">
<path d="M129.808 28.8132C129.808 25.2006 128.373 21.7361 125.819 19.1816C123.264 16.6271 119.8 15.1925 116.187 15.1922C112.574 15.1922 109.108 16.6268 106.553 19.1816L100.562 25.1724L119.828 44.4384L125.819 38.4476C128.374 35.8928 129.808 32.4261 129.808 28.8132ZM13.9424 111.792V131.058H33.2084L109.968 54.2988L90.7016 35.0328L13.9424 111.792ZM82.358 101.624L90.7016 109.967L96.6952 103.976C99.4176 101.254 103.83 101.254 106.553 103.976C109.275 106.699 109.275 111.112 106.553 113.834L100.559 119.825L108.906 128.171L128.172 108.905L101.624 82.3577L82.358 101.624ZM16.8289 36.0948L25.1725 44.4384L31.1661 38.4476C33.8885 35.7252 38.3014 35.7252 41.0238 38.4476C43.7462 41.17 43.7462 45.5828 41.0238 48.3052L35.0302 54.296L43.3766 62.6424L62.6426 43.3764L36.0949 16.8288L16.8289 36.0948ZM143.751 28.8132C143.751 36.1239 140.846 43.1358 135.677 48.3052L124.779 59.2004C124.771 59.2086 124.765 59.2194 124.757 59.2276C124.749 59.2358 124.738 59.2412 124.73 59.2494L111.482 72.5L142.958 103.976C145.681 106.699 145.681 111.112 142.958 113.834L113.835 142.958C111.112 145.68 106.699 145.68 103.977 142.958L85.7973 124.778C85.7895 124.771 85.7805 124.764 85.7728 124.756C85.7642 124.748 85.7568 124.738 85.7483 124.729L72.5003 111.481L41.0238 142.958C39.7164 144.265 37.9437 145 36.0949 145H6.97118C3.12111 145 1.35734e-05 141.879 0 138.029V108.905C0 107.056 0.735089 105.284 2.04234 103.976L33.5189 72.5L20.2682 59.2494C20.2604 59.2417 20.2514 59.2353 20.2437 59.2276C20.235 59.219 20.2277 59.209 20.2192 59.2004L2.04234 41.0236C-0.679926 38.3012 -0.680027 33.8883 2.04234 31.166L31.1661 2.04234L31.6944 1.56308C34.4324 -0.670506 38.4714 -0.509914 41.0238 2.04234L72.5003 33.5187L96.6952 9.32393C101.865 4.15451 108.877 1.24992 116.187 1.24992C123.498 1.25016 130.507 4.15472 135.677 9.32393C140.846 14.4931 143.75 21.5029 143.751 28.8132Z" fill="white"/>
</svg>
