<svg width="146" height="146" viewBox="0 0 146 146" fill="none" xmlns="http://www.w3.org/2000/svg">
<path d="M108.677 0.942383C118.366 0.942482 127.66 4.78819 134.51 11.6387C141.361 18.4893 145.207 27.7844 145.207 37.4727V109.422C145.207 119.11 141.361 128.404 134.51 135.255C127.66 142.105 118.366 145.951 108.677 145.951H36.7273C27.0391 145.951 17.7449 142.105 10.8943 135.255C4.04373 128.404 0.198017 119.11 0.197998 109.422V37.4727C0.197998 27.7844 4.04363 18.4893 10.8943 11.6387C17.7448 4.78819 27.0392 0.942475 36.7273 0.942383H108.677ZM36.7273 16.4424C31.15 16.4425 25.797 18.654 21.8533 22.5977C17.9094 26.5415 15.698 31.8952 15.698 37.4727V109.422C15.698 114.999 17.9095 120.352 21.8533 124.296C25.797 128.24 31.15 130.451 36.7273 130.451H108.677C114.255 130.451 119.608 128.24 123.552 124.296C127.495 120.352 129.707 114.999 129.707 109.422V37.4727C129.707 31.8952 127.495 26.5415 123.552 22.5977C119.608 18.654 114.255 16.4425 108.677 16.4424H36.7273ZM52.696 50.3994C53.5079 48.8468 55.3431 48.2858 56.8005 49.1504L93.116 70.6357C93.61 70.9286 94.0161 71.3629 94.2878 71.8887C95.0996 73.4415 94.57 75.4006 93.116 76.2617L56.8005 97.748C56.3586 98.0146 55.8518 98.1544 55.3357 98.1533C53.6699 98.1533 52.3181 96.7137 52.3181 94.9385V51.9629C52.3181 51.4159 52.449 50.8793 52.696 50.3994Z" fill="white"/>
</svg>
